<?xml version="1.0" encoding="UTF-8" standalone="no"?>
<!DOCTYPE svg PUBLIC "-//W3C//DTD SVG 1.1//EN" "http://www.w3.org/Graphics/SVG/1.1/DTD/svg11.dtd">
<svg width="100%" height="100%" viewBox="0 0 530 200" version="1.1" xmlns="http://www.w3.org/2000/svg" xmlns:xlink="http://www.w3.org/1999/xlink" xml:space="preserve" xmlns:serif="http://www.serif.com/" style="fill-rule:evenodd;clip-rule:evenodd;stroke-linejoin:round;stroke-miterlimit:2;">
    <g transform="matrix(1,0,0,1,0.000002,0)">
        <g id="Layer-1" serif:id="Layer 1" transform="matrix(2.00315,0,0,1.997157,-743.465893,118.886179)">
            <g id="g38" transform="matrix(5.639352,0,0,5.639352,-1721.8884,276.16993)">
                <g id="g136" transform="matrix(0.352778,0,0,-0.352778,386.18316,-59.527697)">
                    <path id="path138" d="M0,0L-34.943,0C-39.18,0 -42.618,-3.521 -42.618,-7.87L-42.618,-42.466C-42.618,-46.775 -39.248,-50.274 -35.058,-50.336L-0.025,-50.337C4.212,-50.337 7.658,-46.815 7.658,-42.466L7.675,-7.87C7.675,-3.521 4.236,0 0,0M-30.79,-46.304L-32.697,-46.327C-35.006,-46.327 -36.87,-44.426 -36.87,-42.09L-36.884,-41.753L-36.884,-9.805L-36.87,-8.083C-36.777,-5.823 -35.062,-3.997 -32.812,-3.997L-28.939,-3.997C-25.422,-3.997 -22.578,-7.052 -22.578,-10.65C-22.578,-12.437 -23.278,-14.05 -24.41,-15.229L-34.293,-25.253L-25.026,-34.693C-23.836,-35.927 -23.116,-37.546 -23.116,-39.315C-23.116,-43.174 -26.545,-46.304 -30.79,-46.304M-2.3,-46.275L-19.579,-46.27C-19.579,-46.27 -17.581,-41.948 -17.581,-39.277C-17.581,-36.02 -18.67,-33.105 -20.375,-31.181L-26.282,-25.155L-20.258,-18.929C-18.455,-17.235 -17.265,-14.238 -17.265,-10.829C-17.265,-8.128 -18.011,-5.735 -19.219,-3.997L-15.03,-3.997C-11.516,-3.997 -8.669,-7.052 -8.669,-10.65C-8.669,-12.437 -9.366,-14.05 -10.495,-15.229L-20.195,-25.151L-0.055,-45.69C-0.697,-46.092 -1.499,-46.275 -2.3,-46.275M1.915,-39.86L-12.52,-25.148L-5.646,-18.164C-4.245,-16.409 -3.353,-13.774 -3.353,-10.829C-3.353,-8.112 -4.113,-5.656 -5.326,-3.919L-2.253,-4.015C0.052,-4.015 1.927,-5.91 1.927,-8.253L1.915,-39.86Z" style="fill:rgb(0,82,156);fill-rule:nonzero;"/>
                </g>
                <g id="g140" transform="matrix(0.352778,0,0,-0.352778,399.81696,-51.4826)">
                    <path id="path142" d="M0,0C0.281,0.281 0.613,0.643 0.996,1.086C1.378,1.529 1.74,2.052 2.082,2.656C2.424,3.26 2.716,3.933 2.957,4.678C3.199,5.422 3.32,6.217 3.32,7.062C3.32,8.711 3.038,10.25 2.475,11.679C1.911,13.107 1.046,14.355 -0.121,15.422C-1.288,16.487 -2.746,17.323 -4.497,17.927C-6.247,18.53 -8.29,18.832 -10.623,18.832L-26.015,18.832L-26.015,-23.419L-9.114,-23.419C-6.66,-23.419 -4.518,-23.087 -2.686,-22.423C-0.856,-21.759 0.664,-20.844 1.871,-19.677C3.078,-18.51 3.973,-17.152 4.557,-15.603C5.14,-14.054 5.432,-12.394 5.432,-10.623C5.432,-8.249 4.889,-6.137 3.803,-4.285C2.716,-2.435 1.448,-1.006 0,0M-7.473,11.09C-6.904,10.873 -6.429,10.591 -6.058,10.236C-5.097,9.314 -4.616,8.212 -4.616,6.93C-4.616,5.767 -4.817,4.806 -5.217,4.045C-5.618,3.283 -6.019,2.702 -6.419,2.302L-18.168,2.302L-18.168,11.589L-10.865,11.589C-9.496,11.589 -8.369,11.42 -7.473,11.09M-8.692,-5.01C-6.565,-5.01 -4.989,-5.561 -3.963,-6.661C-2.998,-7.744 -2.512,-9.022 -2.512,-10.501C-2.512,-12.025 -3.063,-13.326 -4.165,-14.408C-5.268,-15.49 -7.08,-16.032 -9.605,-16.032L-18.168,-16.032L-18.168,-5.01L-8.692,-5.01Z" style="fill:rgb(0,82,156);fill-rule:nonzero;"/>
                </g>
                <g id="g144" transform="matrix(0.352778,0,0,-0.352778,411.84175,-49.640747)">
                    <path id="path146" d="M0,0C1.267,0.865 2.324,1.871 3.169,3.018C4.014,4.165 4.637,5.432 5.04,6.82C5.442,8.209 5.644,9.627 5.644,11.076C5.644,12.967 5.331,14.707 4.708,16.297C4.083,17.886 3.148,19.254 1.901,20.401C0.653,21.548 -0.906,22.443 -2.777,23.087C-4.648,23.73 -6.811,24.053 -9.265,24.053L-25.895,24.053L-25.895,-18.198L-17.896,-18.198L-17.896,-2.505L-13.436,-2.505L-2.405,-18.198L6.971,-18.198L-4.436,-1.962C-2.747,-1.52 -1.268,-0.866 0,0M-9.205,16.81C-8.702,16.81 -8.227,16.777 -7.775,16.72C-6.349,16.505 -5.184,15.996 -4.286,15.187C-3.064,14.084 -2.453,12.732 -2.453,11.13C-2.453,10.327 -2.584,9.546 -2.844,8.785C-3.105,8.023 -3.515,7.352 -4.076,6.772C-4.638,6.19 -5.359,5.72 -6.24,5.359C-7.122,4.998 -8.184,4.818 -9.426,4.818L-17.896,4.818L-17.896,16.81L-9.205,16.81Z" style="fill:rgb(0,82,156);fill-rule:nonzero;"/>
                </g>
                <g id="g148" transform="matrix(0.352778,0,0,-0.352778,415.29756,-58.126111)">
                    <path id="path150" d="M0,0L0,-0.012C-0.081,-0.01 -0.16,0 -0.241,0L-0.309,0L-0.309,-42.251L7.847,-42.251L7.847,0L0,0Z" style="fill:rgb(0,82,156);fill-rule:nonzero;"/>
                </g>
            </g>
        </g>
    </g>
</svg>
